<svg width="154" height="96" viewBox="0 0 154 96" fill="none" xmlns="http://www.w3.org/2000/svg">
<g clip-path="url(#clip0_107_579)">
<g clip-path="url(#clip1_107_579)">
<path d="M10.4761 88.4595C10.3229 89.2364 10.1157 89.84 9.85226 90.2656C9.58879 90.6934 9.27802 90.9772 8.91545 91.1191C8.55289 91.2609 8.16556 91.333 7.74895 91.333C7.24451 91.333 6.80088 91.2294 6.41805 91.02C6.03522 90.8128 5.71769 90.4075 5.46547 89.8039C5.21325 89.2027 5.02635 88.3537 4.90699 87.257C4.78539 86.1625 4.72683 84.728 4.72683 82.9535C4.72683 81.2893 4.76962 79.8819 4.85745 78.7311C4.94528 77.5804 5.0984 76.6503 5.31684 75.9387C5.53528 75.2271 5.83704 74.7136 6.21987 74.3939C6.60271 74.0763 7.09138 73.9187 7.68139 73.9187C8.75331 73.9187 9.4942 74.3083 9.89955 75.0852C10.3049 75.8621 10.5076 77.1052 10.5076 78.8144H15.2389C15.2389 77.9609 15.1781 77.0467 15.0588 76.0716C14.9372 75.0965 14.6376 74.1889 14.1557 73.3445C13.6738 72.5022 12.9464 71.8064 11.9713 71.2592C10.9963 70.7119 9.66535 70.4372 7.9809 70.4372C6.20636 70.4372 4.79439 70.739 3.74273 71.3402C2.69107 71.9437 1.88713 72.7815 1.32865 73.8534C0.770164 74.9276 0.409853 76.2134 0.245461 77.7132C0.0810692 79.213 0 80.8502 0 82.6247C0 84.3993 0.0810692 86.0635 0.245461 87.552C0.409853 89.0405 0.770164 90.3219 1.32865 91.3961C1.88713 92.4702 2.69107 93.2899 3.74273 93.8597C4.79439 94.4294 6.20636 94.7132 7.9809 94.7132C9.53474 94.7132 10.8003 94.4722 11.7754 93.9903C12.7505 93.5084 13.5049 92.8418 14.0431 91.9861C14.5791 91.1326 14.9462 90.135 15.1443 88.9955C15.3425 87.856 15.4393 86.6512 15.4393 85.3811H10.708C10.708 86.6512 10.6314 87.6758 10.4783 88.4528L10.4761 88.4595Z" fill="white"/>
<path d="M21.6524 70.9012H17.1193V94.3575H21.6524V70.9012Z" fill="white"/>
<path d="M35.8375 78.5217C35.3128 77.7335 34.5989 77.148 33.7026 76.7652C32.8041 76.3824 31.6759 76.2022 30.3179 76.2225C29.0253 76.2225 27.9354 76.4252 27.0504 76.8305C26.1631 77.2359 25.4447 77.8281 24.8998 78.605C24.3525 79.382 23.9584 80.3526 23.7175 81.5123C23.4765 82.6743 23.3572 84.0097 23.3572 85.5208C23.3572 87.0318 23.4675 88.4055 23.686 89.5788C23.9044 90.7498 24.2782 91.7249 24.8029 92.5018C25.3276 93.2787 26.0392 93.8485 26.9378 94.211C27.8363 94.5713 28.9623 94.7425 30.3202 94.72C31.6128 94.72 32.7028 94.5331 33.59 94.1615C34.4773 93.7899 35.1934 93.2157 35.7406 92.4365C36.2879 91.6596 36.6819 90.6912 36.9229 89.5292C37.1639 88.3695 37.2832 87.0318 37.2832 85.5208C37.2832 84.0097 37.1729 82.609 36.9544 81.447C36.736 80.2872 36.3622 79.3122 35.8375 78.524V78.5217ZM32.2231 90.2814C31.8718 91.2452 31.2367 91.7271 30.3179 91.7271C29.7707 91.7271 29.3316 91.574 29.0028 91.2677C28.674 90.9615 28.4286 90.5336 28.2642 89.9864C28.0998 89.4392 27.9962 88.7816 27.9511 88.0159C27.9061 87.2503 27.8858 86.417 27.8858 85.5185C27.8858 84.62 27.9084 83.789 27.9511 83.0211C27.9939 82.2554 28.0998 81.5979 28.2642 81.0507C28.4286 80.5034 28.674 80.0756 29.0028 79.7693C29.3316 79.463 29.7685 79.3099 30.3179 79.3099C31.2367 79.3099 31.8718 79.7918 32.2231 80.7557C32.5721 81.7195 32.7478 83.3071 32.7478 85.5185C32.7478 87.7299 32.5721 89.3175 32.2231 90.2814Z" fill="white"/>
<path d="M47.7142 88.41C47.7142 90.3602 46.9148 91.333 45.3159 91.333C44.6381 91.333 44.1449 91.1529 43.8386 90.7903C43.5324 90.4278 43.3792 89.7882 43.3792 88.8694V76.6819H38.8461V89.7882C38.8461 91.5627 39.2357 92.8261 40.0126 93.5827C40.7895 94.3371 41.902 94.7155 43.3477 94.7155C44.3341 94.7155 45.2101 94.5286 45.9757 94.157C46.7414 93.7854 47.3652 93.1616 47.8471 92.2856H47.9124V94.3552H52.2497V76.6819H47.7165V88.41H47.7142Z" fill="white"/>
<path d="M63.2617 78.3235H63.1964C62.7145 77.6231 62.1718 77.0984 61.5705 76.7471C60.967 76.3981 60.2396 76.2224 59.3861 76.2224C57.5238 76.2224 56.1546 76.9498 55.2808 78.4068C54.4048 79.8638 53.9657 82.2329 53.9657 85.5185C53.9657 88.8041 54.4026 91.1573 55.2808 92.5806C56.1568 94.0038 57.526 94.7154 59.3861 94.7154C60.3049 94.7154 61.0773 94.551 61.7034 94.2222C62.3272 93.8934 62.8902 93.3147 63.3946 92.4815H63.4599V94.3528H67.7972V70.8966H63.264V78.3212L63.2617 78.3235ZM62.8181 89.8715C62.5231 90.8466 61.87 91.333 60.8634 91.333C59.8568 91.333 59.2375 90.8466 58.9425 89.8715C58.6475 88.8964 58.4989 87.4461 58.4989 85.5185C58.4989 83.5908 58.6475 82.1405 58.9425 81.1654C59.2375 80.1904 59.8793 79.7039 60.8634 79.7039C61.8475 79.7039 62.5231 80.1926 62.8181 81.1654C63.1131 82.1405 63.2617 83.5908 63.2617 85.5185C63.2617 87.4461 63.1131 88.8964 62.8181 89.8715Z" fill="white"/>
<path d="M91.4808 73.1015C90.9763 72.4439 90.3143 71.9147 89.4923 71.5071C88.6703 71.1018 87.657 70.8991 86.4544 70.8991H78.1763V94.3553H82.9076V84.994H85.4365C86.5535 84.994 87.5714 84.8521 88.4924 84.5661C89.4112 84.2824 90.1949 83.8545 90.8412 83.2848C91.4875 82.715 91.992 81.9809 92.3523 81.0846C92.7148 80.1861 92.895 79.1367 92.895 77.9319C92.895 77.0559 92.7846 76.1957 92.5662 75.3534C92.3478 74.5112 91.9852 73.7591 91.483 73.1037L91.4808 73.1015ZM87.2921 80.6568C86.7111 81.2265 85.95 81.5102 85.0087 81.5102H82.9054V74.3828H84.8758C86.0581 74.3828 86.9003 74.6891 87.4047 75.3016C87.9092 75.9142 88.1614 76.8127 88.1614 77.995C88.1614 79.1772 87.8709 80.087 87.2899 80.6568H87.2921Z" fill="white"/>
<path d="M103.083 76.2226C101.09 76.2226 99.6554 76.9792 98.7794 78.4903H98.7141V70.9012H94.1809V94.3575H98.7141V82.6294C98.7141 80.6814 99.5135 79.7064 101.112 79.7064C101.79 79.7064 102.283 79.8865 102.59 80.2491C102.896 80.6116 103.049 81.2512 103.049 82.17V94.3575H107.582V81.2512C107.582 79.4767 107.193 78.1953 106.416 77.4071C105.639 76.6189 104.526 76.2248 103.081 76.2248L103.083 76.2226Z" fill="white"/>
<path d="M121.623 78.5217C121.098 77.7335 120.385 77.148 119.488 76.7652C118.59 76.3824 117.462 76.2022 116.104 76.2225C114.811 76.2225 113.721 76.4252 112.836 76.8305C111.949 77.2359 111.23 77.8281 110.685 78.605C110.138 79.382 109.744 80.3526 109.503 81.5123C109.262 82.6743 109.143 84.0097 109.143 85.5208C109.143 87.0318 109.253 88.4055 109.472 89.5788C109.69 90.7498 110.064 91.7249 110.589 92.5018C111.113 93.2787 111.825 93.8485 112.723 94.211C113.622 94.5713 114.748 94.7425 116.106 94.72C117.398 94.72 118.488 94.5331 119.376 94.1615C120.263 93.7899 120.979 93.2157 121.526 92.4365C122.074 91.6596 122.468 90.6912 122.709 89.5292C122.95 88.3695 123.069 87.0318 123.069 85.5208C123.069 84.0097 122.959 82.609 122.74 81.447C122.522 80.2872 122.148 79.3122 121.623 78.524V78.5217ZM118.009 90.2814C117.657 91.2452 117.022 91.7271 116.104 91.7271C115.556 91.7271 115.117 91.574 114.788 91.2677C114.46 90.9615 114.214 90.5336 114.05 89.9864C113.885 89.4392 113.782 88.7816 113.737 88.0159C113.692 87.2503 113.671 86.417 113.671 85.5185C113.671 84.62 113.694 83.789 113.737 83.0211C113.78 82.2554 113.885 81.5979 114.05 81.0507C114.214 80.5034 114.46 80.0756 114.788 79.7693C115.117 79.463 115.554 79.3099 116.104 79.3099C117.022 79.3099 117.657 79.7918 118.009 80.7557C118.358 81.7195 118.533 83.3071 118.533 85.5185C118.533 87.7299 118.358 89.3175 118.009 90.2814Z" fill="white"/>
<path d="M133.531 76.2225C132.545 76.2225 131.669 76.4252 130.903 76.8305C130.135 77.2359 129.512 77.8777 129.032 78.7514H128.967V76.6819H124.629V94.3552H129.163V82.627C129.163 80.6791 129.962 79.704 131.561 79.704C132.239 79.704 132.732 79.8842 133.038 80.2467C133.344 80.6093 133.498 81.2488 133.498 82.1676V94.3552H138.031V81.2488C138.031 79.4743 137.641 78.193 136.864 77.4048C136.087 76.6166 134.975 76.2225 133.529 76.2225H133.531Z" fill="white"/>
<path d="M153.108 86.2076V85.1897C153.108 83.8318 153.02 82.6 152.844 81.4943C152.668 80.3886 152.34 79.4473 151.858 78.6681C151.376 77.8912 150.714 77.2877 149.869 76.8621C149.025 76.4342 147.948 76.2225 146.633 76.2225C145.1 76.2225 143.875 76.4747 142.954 76.9792C142.035 77.4836 141.328 78.1614 140.834 79.0149C140.341 79.8684 140.013 80.8435 139.848 81.9379C139.684 83.0324 139.603 84.1719 139.603 85.3541C139.603 86.4711 139.652 87.5881 139.751 88.705C139.85 89.822 140.118 90.8286 140.555 91.7272C140.992 92.6257 141.672 93.3485 142.591 93.8958C143.51 94.443 144.791 94.7177 146.435 94.7177C148.604 94.7177 150.191 94.1818 151.198 93.1076C152.205 92.0357 152.752 90.4683 152.84 88.41H148.766C148.635 89.527 148.394 90.3602 148.043 90.9074C147.692 91.4547 147.133 91.7294 146.368 91.7294C145.951 91.7294 145.6 91.6145 145.316 91.3849C145.032 91.1552 144.8 90.8489 144.627 90.4661C144.451 90.0832 144.325 89.6441 144.248 89.1509C144.172 88.6577 144.134 88.1488 144.134 87.6241V86.2121H153.101L153.108 86.2076ZM144.14 82.8252C144.14 82.4086 144.179 81.992 144.255 81.5776C144.332 81.161 144.458 80.7849 144.634 80.4449C144.809 80.1049 145.043 79.8324 145.341 79.6229C145.636 79.4158 146.014 79.3099 146.473 79.3099C146.933 79.3099 147.311 79.4022 147.606 79.5892C147.901 79.7761 148.131 80.0486 148.295 80.4111C148.46 80.7714 148.574 81.2106 148.64 81.724C148.705 82.2397 148.75 82.8365 148.77 83.5143H144.138V82.8252H144.14Z" fill="white"/>
<path d="M123.231 41.3286C123.231 41.0516 123.222 40.7769 123.211 40.5021C123.206 40.4166 123.202 40.331 123.195 40.2454C123.184 40.0495 123.168 39.8536 123.15 39.6577C123.141 39.5676 123.134 39.4797 123.123 39.3897C123.101 39.1712 123.071 38.9528 123.04 38.7344C123.033 38.6803 123.026 38.6285 123.017 38.5745C122.977 38.311 122.929 38.0498 122.878 37.7885C122.862 37.7075 122.844 37.6287 122.826 37.5476C122.788 37.3652 122.745 37.1828 122.7 37.0004C122.677 36.9058 122.653 36.8112 122.628 36.7166C122.58 36.541 122.531 36.3653 122.479 36.1919C122.454 36.1086 122.432 36.0253 122.405 35.9419C122.328 35.701 122.249 35.4623 122.164 35.2258C122.132 35.1403 122.099 35.0569 122.067 34.9714C122.006 34.8115 121.945 34.6538 121.88 34.4984C121.837 34.3926 121.792 34.289 121.745 34.1832C121.686 34.0481 121.623 33.9129 121.563 33.7778C121.513 33.672 121.466 33.5661 121.414 33.4626C121.34 33.3117 121.261 33.1608 121.182 33.0122C121.096 32.8478 121.006 32.6856 120.914 32.5235C120.849 32.4064 120.783 32.2915 120.714 32.1767C120.642 32.0573 120.567 31.938 120.495 31.8209C120.437 31.7263 120.376 31.634 120.315 31.5394C120.234 31.4155 120.153 31.2939 120.07 31.1723C120.018 31.0958 119.964 31.0214 119.91 30.9471C119.711 30.6701 119.509 30.3999 119.295 30.1342C119.275 30.1094 119.257 30.0846 119.236 30.0599C119.126 29.9247 119.013 29.7919 118.899 29.659C118.853 29.6072 118.808 29.5532 118.761 29.5014C118.644 29.3685 118.525 29.2356 118.403 29.1073C118.369 29.0713 118.336 29.0352 118.299 28.9992C117.878 28.5556 117.437 28.1367 116.973 27.7381C116.957 27.7246 116.942 27.7111 116.926 27.6976C116.768 27.5647 116.611 27.4341 116.448 27.3057C116.433 27.2922 116.417 27.281 116.401 27.2674C115.721 26.7292 115 26.2428 114.246 25.8059C114.244 25.8059 114.241 25.8037 114.239 25.8014C113.474 25.36 112.674 24.975 111.843 24.6507C111.521 17.3364 107.99 10.8553 102.621 6.58557C102.621 6.58557 102.619 6.58557 102.617 6.58332C102.324 6.35137 102.027 6.12617 101.725 5.90774C101.714 5.90098 101.705 5.89197 101.694 5.88522C101.399 5.67128 101.097 5.46635 100.793 5.26593C100.775 5.25467 100.757 5.24341 100.739 5.2299C100.439 5.03398 100.135 4.84707 99.8268 4.66241C99.802 4.6489 99.7795 4.63313 99.7547 4.61962C99.4507 4.44172 99.1422 4.26832 98.8292 4.10393C98.7999 4.08816 98.7706 4.0724 98.7391 4.05664C98.4306 3.8945 98.1153 3.73911 97.8 3.59048C97.7662 3.57472 97.7325 3.55896 97.6964 3.54319C97.3812 3.39682 97.0636 3.25719 96.7416 3.12433C96.7033 3.10857 96.6673 3.0928 96.629 3.07929C96.307 2.94868 95.9827 2.82482 95.6562 2.70547C95.6156 2.69196 95.5774 2.67844 95.5368 2.66268C95.208 2.54783 94.877 2.43749 94.5437 2.33615C94.5032 2.32489 94.4649 2.31363 94.4244 2.30012C94.0888 2.19878 93.7488 2.10645 93.4065 2.01862C93.3682 2.00962 93.3277 2.00061 93.2894 1.98935C92.9448 1.90378 92.5958 1.82496 92.2467 1.75515C92.2107 1.74839 92.1747 1.74164 92.1386 1.73488C91.7828 1.66507 91.4248 1.60201 91.0644 1.54797C91.0329 1.54346 91.0014 1.53896 90.9721 1.53446C90.6051 1.48041 90.2357 1.43537 89.8642 1.39709C89.8416 1.39484 89.8169 1.39258 89.7944 1.39033C89.4138 1.3543 89.0309 1.32502 88.6459 1.30476C88.6323 1.30476 88.6166 1.30476 88.6031 1.30476C88.2067 1.28674 87.8104 1.27548 87.4095 1.27548C87.1461 1.27548 86.8848 1.28224 86.6214 1.28899C86.547 1.29125 86.475 1.2935 86.4007 1.298C86.1912 1.30701 85.9841 1.31827 85.7769 1.33178C85.7206 1.33628 85.662 1.33854 85.6035 1.34304C85.3445 1.36106 85.0878 1.38358 84.8311 1.4106C84.7793 1.4151 84.7275 1.42186 84.6757 1.42861C84.464 1.45339 84.2523 1.47816 84.0406 1.50743C83.9753 1.51644 83.91 1.52545 83.847 1.53446C83.3313 1.60877 82.8201 1.7011 82.3156 1.80694C82.2616 1.8182 82.2098 1.82946 82.1557 1.84072C81.9328 1.89026 81.7121 1.93981 81.4914 1.9961C81.4577 2.00511 81.4239 2.01187 81.3923 2.02088C81.1334 2.08618 80.8767 2.15599 80.6199 2.23031C80.6042 2.23481 80.5884 2.23932 80.5704 2.24382C80.3317 2.31363 80.093 2.38794 79.8565 2.46451C79.825 2.47577 79.7912 2.48478 79.7597 2.49604C79.2462 2.66493 78.7418 2.84959 78.2441 3.05002L78.2126 3.06353C72.8102 5.25467 68.3716 9.31943 65.6963 14.4516C65.6085 14.3796 65.5206 14.312 65.4305 14.2422C65.3945 14.2129 65.3585 14.1836 65.3202 14.1544C65.2369 14.0913 65.1513 14.0305 65.068 13.9697C65.0184 13.9337 64.9666 13.8976 64.9171 13.8616C64.836 13.8053 64.7527 13.7513 64.6694 13.6972C64.6131 13.6612 64.5568 13.6229 64.4982 13.5869C64.4172 13.5351 64.3338 13.4855 64.2505 13.436C64.1897 13.4 64.1267 13.3639 64.0636 13.3301C63.9825 13.2851 63.8992 13.2378 63.8159 13.195C63.7506 13.159 63.683 13.1252 63.6155 13.0914C63.5344 13.0509 63.4511 13.0081 63.37 12.9698C63.298 12.9361 63.2236 12.9045 63.1516 12.8708C63.0728 12.8347 62.9917 12.7987 62.9129 12.7649C62.8093 12.7221 62.7012 12.6816 62.5953 12.6411C62.4895 12.6005 62.3814 12.5622 62.2733 12.524C62.1742 12.4902 62.0774 12.4564 61.9783 12.4249C61.9062 12.4023 61.8342 12.3821 61.7621 12.3618C61.6675 12.3348 61.5752 12.3078 61.4806 12.2807C61.4063 12.2605 61.332 12.2447 61.2599 12.2267C61.1654 12.2042 61.0685 12.1817 60.9739 12.1614C60.8996 12.1456 60.8253 12.1299 60.751 12.1164C60.6519 12.0983 60.5528 12.0803 60.4537 12.0623C60.3817 12.051 60.3074 12.0375 60.2353 12.0285C60.1295 12.0128 60.0236 12.0015 59.9178 11.988C59.848 11.979 59.7804 11.9722 59.7106 11.9655C59.5935 11.9542 59.4741 11.9452 59.3548 11.9384C59.2962 11.9339 59.2377 11.9294 59.1791 11.9272C59.0012 11.9182 58.8211 11.9137 58.6409 11.9137C52.5269 11.9137 47.5704 16.8702 47.5704 22.9842C43.1475 22.9842 39.0963 24.5696 35.9503 27.2021C35.545 27.5399 35.1531 27.8957 34.7793 28.2673C34.7703 28.2763 34.759 28.2853 34.75 28.2943C31.4689 31.5754 29.4399 36.1086 29.4399 41.1147C29.4399 47.0598 32.3022 52.3361 36.7227 55.642C37.4208 56.1644 38.1572 56.6373 38.9274 57.0562C41.4969 58.4524 44.4402 59.2451 47.5681 59.2451H105.315C115.208 59.2451 123.227 51.2259 123.227 41.3354C123.227 41.3354 123.227 41.3308 123.227 41.3286H123.231Z" fill="white"/>
</g>
</g>
<defs>
<clipPath id="clip0_107_579">
<rect width="153.6" height="96" fill="white"/>
</clipPath>
<clipPath id="clip1_107_579">
<rect width="153.6" height="96" fill="white"/>
</clipPath>
</defs>
</svg>
